#!OML:ASF E:\id_vita\Project 1\Capture day 1\Session 1\Female.ASF
:FULLY-SPECIFIED
:DEGREES
1895
root 19.073 13.5437 1.71239 728.881 264.279 737.328
lowerback 11.7391 0.648539 -4.41389
upperback 2.05165 0.269806 0.769444
thorax -4.45733 0.167573 3.25938
lowerneck -1.50883 -1.38411 -2.91863
upperneck -21.2332 -1.43975 8.0256
head -6.05808 -1.42121 3.16804
rclavicle -5.76476e-015 -2.98177e-014
rhumerus 11.6695 8.36096 -70.7491
rradius 39.0979
rwrist 6.60673
rhand -34.9402 19.3868
rfingers 7.12502
rthumb -8.08709 -10.4385
lclavicle -5.76476e-015 -2.98177e-014
lhumerus 16.3685 -3.75084 89.4711
lradius 42.3554
lwrist -32.1269
lhand -44.0256 25.1265
lfingers 7.12502
lthumb -16.8458 54.4158
rfemur -63.3426 -6.08377 27.2545
rtibia 95.4123
rfoot -19.9137 -12.9675
rtoes -14.6058
lfemur -78.4958 -2.60728 -26.9991
ltibia 81.0063
lfoot -23.0486 17.0257
ltoes 5.83728
1896
root 19.1429 13.605 1.70871 726.545 264.134 739.652
lowerback 11.4264 0.662095 -4.26041
upperback 2.07391 0.323881 0.793591
thorax -4.26514 0.187984 3.18896
lowerneck -1.3985 -1.29778 -2.7883
upperneck -21.5381 -1.32961 7.9464
head -6.18355 -1.3856 3.12616
rclavicle -1.76918e-014 -6.65929e-014
rhumerus 11.6021 8.40318 -71.3959
rradius 38.488
rwrist 6.81496
rhand -34.6198 19.1574
rfingers 7.12502
rthumb -7.7778 -10.6795
lclavicle -1.76918e-014 -6.65929e-014
lhumerus 16.9841 -2.75139 89.9394
lradius 40.6291
lwrist -33.4228
lhand -43.7066 24.8269
lfingers 7.12502
lthumb -16.5388 54.1421
rfemur -63.1344 -5.85044 27.639
rtibia 94.3309
rfoot -19.8403 -13.339
rtoes -15.4594
lfemur -78.3653 -2.56179 -26.5074
ltibia 80.1695
lfoot -22.4886 16.9703
ltoes 6.00524
1897
root 19.2081 13.6727 1.70218 726.06 263.959 740.018
lowerback 11.1821 0.710895 -4.37762
upperback 2.13473 0.386203 0.793804
thorax -4.07239 0.214487 3.24608
lowerneck -1.38055 -1.19886 -2.53889
upperneck -21.7858 -1.23521 7.65303
head -6.27857 -1.34801 2.99215
rclavicle 2.66371e-014 3.51849e-014
rhumerus 11.3531 8.35691 -72.11
rradius 37.9468
rwrist 7.36824
rhand -34.6059 18.8341
rfingers 7.12502
rthumb -7.76443 -11.0033
lclavicle 2.66371e-014 3.51849e-014
lhumerus 17.5255 -1.87535 90.3504
lradius 39.0617
lwrist -34.5536
lhand -43.2227 24.4377
lfingers 7.12502
lthumb -16.0728 53.7911
rfemur -62.8335 -5.67589 27.8417
rtibia 93.2255
rfoot -19.6519 -13.6117
rtoes -15.6902
lfemur -78.0072 -2.48057 -26.2336
ltibia 79.2442
lfoot -21.8262 16.9523
ltoes 4.89897
1898
root 19.2759 13.7444 1.69704 725.695 263.805 740.252
lowerback 11.1351 0.721599 -4.49816
upperback 2.13721 0.389356 0.809938
thorax -4.04487 0.216929 3.3308
lowerneck -1.56967 -0.98939 -2.50729
upperneck -21.8797 -0.97609 7.50687
head -6.29277 -1.21734 2.92873
rclavicle 1.74931e-014 3.97569e-014
rhumerus 10.942 8.44673 -72.8417
rradius 37.4918
rwrist 8.20059
rhand -34.7737 18.4163
rfingers 7.12502
rthumb -7.9264 -11.4151
lclavicle 1.74931e-014 3.97569e-014
lhumerus 18.0396 -0.821461 90.8243
lradius 37.364
lwrist -35.533
lhand -42.7014 23.5115
lfingers 7.12502
lthumb -15.5708 52.9047
rfemur -62.5001 -5.4938 28.014
rtibia 92.0988
rfoot -19.3844 -13.8057
rtoes -15.3246
lfemur -77.6025 -2.39899 -25.9853
ltibia 78.1939
lfoot -20.9107 16.8581
ltoes 5.54409
1899
root 19.3469 13.8014 1.69124 724.754 263.712 741.193
lowerback 11.1232 0.680143 -4.50039
upperback 1.99419 0.338512 0.839635
thorax -4.18358 0.200091 3.37069
lowerneck -1.38633 -0.715019 -2.7618
upperneck -22.1699 -0.573322 7.68004
head -6.43578 -1.02659 3.02041
rclavicle -1.09332e-014 -3.97569e-015
rhumerus 10.4482 8.72014 -73.5504
rradius 37.1354
rwrist 8.34578
rhand -34.4947 17.7766
rfingers 7.12502
rthumb -7.65703 -12.0648
lclavicle -1.09332e-014 -3.97569e-015
lhumerus 18.455 0.495643 91.4064
lradius 35.5363
lwrist -36.7416
lhand -42.3351 22.494
lfingers 7.12502
lthumb -15.218 51.9143
rfemur -62.3051 -5.34274 28.2991
rtibia 91.0604
rfoot -19.2595 -14.0911
rtoes -15.0524
lfemur -77.4355 -2.3311 -25.677
ltibia 77.1889
lfoot -20.3645 16.5539
ltoes 4.09513
1900
root 19.4126 13.8777 1.68423 724.071 263.605 741.812
lowerback 11.003 0.657923 -4.5004
upperback 1.91264 0.316161 0.826197
thorax -4.20029 0.19237 3.3597
lowerneck -1.1476 -0.492931 -2.89102
upperneck -22.4548 -0.257568 7.7266
head -6.58595 -0.878272 3.05295
rclavicle -6.16232e-015 8.74653e-015
rhumerus 9.9798 9.13531 -74.1879
rradius 36.816
rwrist 7.88292
rhand -33.9715 16.9326
rfingers 7.12502
rthumb -7.15206 -12.9266
lclavicle -6.16232e-015 8.74653e-015
lhumerus 18.8751 1.52478 91.794
lradius 33.8771
lwrist -37.7766
lhand -41.8124 21.7815
lfingers 7.12502
lthumb -14.7145 51.2393
rfemur -61.9164 -5.27101 28.5916
rtibia 89.9041
rfoot -19.1518 -14.4939
rtoes -15.2005
lfemur -77.0469 -2.09019 -25.51
ltibia 76.0897
lfoot -20.4967 16.0294
ltoes 7.02721
1901
root 19.4759 13.9502 1.67738 723.411 263.465 742.256
lowerback 10.8888 0.698977 -4.52602
upperback 2.02216 0.371672 0.818939
thorax -4.02755 0.212597 3.35842
lowerneck -1.40805 -0.371864 -2.80199
upperneck -22.4849 -0.139971 7.46272
head -6.56033 -0.808346 2.94474
rclavicle 4.57205e-015 -3.57812e-015
rhumerus 9.69688 9.41029 -74.7061
rradius 36.3929
rwrist 7.57322
rhand -33.766 16.5058
rfingers 7.12502
rthumb -6.9537 -13.36
lclavicle 4.57205e-015 -3.57812e-015
lhumerus 19.4701 2.26732 92.1406
lradius 32.4095
lwrist -38.5578
lhand -40.6458 21.535
lfingers 7.12502
lthumb -13.5903 51.0714
rfemur -61.3838 -5.24703 28.8862
rtibia 88.7543
rfoot -18.96 -14.9658
rtoes -15.4675
lfemur -76.4809 -1.9291 -25.2877
ltibia 75.0331
lfoot -19.7256 15.7603
ltoes 5.67917
